<svg width="17" height="14" viewBox="0 0 17 14" fill="none" xmlns="http://www.w3.org/2000/svg">
<path d="M16.0241 1.89314C15.4232 2.15852 14.7889 2.32438 14.1213 2.4239C14.7889 2.02583 15.323 1.39556 15.5567 0.632597C14.9224 0.997492 14.2214 1.26287 13.4536 1.42873C12.8527 0.798458 11.9848 0.400391 11.0501 0.400391C9.24742 0.400391 7.7786 1.85997 7.7786 3.65127C7.7786 3.91665 7.81198 4.14886 7.87874 4.38107C5.17477 4.24838 2.73785 2.95466 1.10211 0.96432C0.835049 1.4619 0.668137 1.99266 0.668137 2.58976C0.668137 3.71762 1.23564 4.71279 2.13696 5.30989C1.60285 5.27672 1.10211 5.14403 0.634755 4.91182V4.94499C0.634755 6.53726 1.76976 7.86416 3.27197 8.16271C3.00491 8.22905 2.70447 8.26222 2.40402 8.26222C2.20373 8.26222 1.97005 8.22905 1.76976 8.19588C2.20373 9.4896 3.4055 10.4516 4.84094 10.4516C3.70594 11.3141 2.30388 11.8448 0.768284 11.8448C0.501225 11.8448 0.234165 11.8448 0.000488281 11.8117C1.46932 12.7405 3.17182 13.2712 5.04124 13.2712C11.0835 13.2712 14.3883 8.29539 14.3883 3.983C14.3883 3.85031 14.3883 3.68445 14.3883 3.55176C15.0226 3.12052 15.5901 2.55659 16.0241 1.89314Z" fill="white"/>
</svg>
