<svg width="21" height="20" viewBox="0 0 21 20" fill="none" xmlns="http://www.w3.org/2000/svg">
<path d="M10.5888 2.27847C13.1825 2.27847 13.4897 2.28812 14.5143 2.33455C15.1304 2.34204 15.7406 2.45445 16.3184 2.66689C16.7374 2.82747 17.118 3.07347 17.4355 3.38904C17.7531 3.7046 18.0006 4.08276 18.1622 4.49915C18.376 5.07333 18.4892 5.67969 18.4967 6.29187C18.543 7.31005 18.5531 7.61527 18.5531 10.1927C18.5531 12.77 18.5434 13.0753 18.4967 14.0934C18.4892 14.7056 18.376 15.312 18.1622 15.8862C18.0006 16.3026 17.7531 16.6807 17.4355 16.9963C17.118 17.3118 16.7374 17.5578 16.3184 17.7184C15.7406 17.9309 15.1304 18.0433 14.5143 18.0508C13.4901 18.0967 13.183 18.1068 10.5888 18.1068C7.99462 18.1068 7.68747 18.0972 6.6633 18.0508C6.04725 18.0433 5.43704 17.9309 4.85922 17.7184C4.44019 17.5578 4.05965 17.3118 3.74208 16.9963C3.42451 16.6807 3.17696 16.3026 3.01536 15.8862C2.80157 15.312 2.68845 14.7056 2.68091 14.0934C2.63465 13.0753 2.62447 12.77 2.62447 10.1927C2.62447 7.61527 2.63419 7.31005 2.68091 6.29187C2.68845 5.67969 2.80157 5.07333 3.01536 4.49915C3.17696 4.08276 3.42451 3.7046 3.74208 3.38904C4.05965 3.07347 4.44019 2.82747 4.85922 2.66689C5.43704 2.45445 6.04725 2.34204 6.6633 2.33455C7.68793 2.28858 7.99509 2.27847 10.5888 2.27847ZM10.5888 0.539062C7.95207 0.539062 7.61993 0.550095 6.58374 0.596981C5.77747 0.612917 4.97977 0.764615 4.22455 1.04562C3.5767 1.28818 2.98991 1.66828 2.50512 2.15941C2.01044 2.64132 1.6276 3.22475 1.38336 3.86893C1.10057 4.6194 0.947909 5.41208 0.931872 6.21327C0.885614 7.24202 0.874512 7.57206 0.874512 10.1922C0.874512 12.8123 0.885614 13.1424 0.932797 14.172C0.948834 14.9732 1.10149 15.7659 1.38428 16.5164C1.62825 17.1605 2.01077 17.7439 2.50512 18.2259C2.99018 18.7171 3.5773 19.0973 4.22548 19.3397C4.98069 19.6207 5.7784 19.7724 6.58466 19.7883C7.62086 19.8343 7.9516 19.8463 10.5897 19.8463C13.2279 19.8463 13.5586 19.8352 14.5948 19.7883C15.4011 19.7724 16.1988 19.6207 16.954 19.3397C17.5991 19.0912 18.1849 18.7117 18.674 18.2254C19.1631 17.7391 19.5446 17.1567 19.7943 16.5155C20.077 15.765 20.2297 14.9723 20.2457 14.1711C20.292 13.1424 20.3031 12.8123 20.3031 10.1922C20.3031 7.57206 20.292 7.24202 20.2448 6.21235C20.2288 5.41116 20.0761 4.61848 19.7933 3.86801C19.5494 3.22391 19.1668 2.64049 18.6725 2.15849C18.1874 1.66725 17.6003 1.28714 16.9521 1.0447C16.1969 0.763696 15.3992 0.611998 14.5929 0.596062C13.5577 0.550095 13.2255 0.539062 10.5888 0.539062Z" fill="white"/>
<path d="M10.5872 5.23438C9.60052 5.23438 8.63604 5.5251 7.81568 6.0698C6.99532 6.61449 6.35593 7.38869 5.97836 8.29448C5.60079 9.20028 5.502 10.197 5.69449 11.1586C5.88697 12.1202 6.36208 13.0034 7.05974 13.6967C7.7574 14.39 8.64627 14.8621 9.61394 15.0534C10.5816 15.2446 11.5846 15.1465 12.4962 14.7713C13.4077 14.3961 14.1868 13.7607 14.735 12.9455C15.2831 12.1303 15.5757 11.1719 15.5757 10.1915C15.5757 8.87678 15.0501 7.61592 14.1146 6.68628C13.179 5.75664 11.9102 5.23438 10.5872 5.23438ZM10.5872 13.4092C9.94672 13.4092 9.32067 13.2205 8.78816 12.8669C8.25566 12.5134 7.84063 12.0108 7.59554 11.4229C7.35046 10.8349 7.28633 10.1879 7.41128 9.56375C7.53622 8.93957 7.84462 8.36623 8.29747 7.91622C8.75033 7.46622 9.3273 7.15976 9.95543 7.03561C10.5836 6.91145 11.2346 6.97517 11.8263 7.21871C12.418 7.46225 12.9237 7.87467 13.2795 8.40382C13.6353 8.93297 13.8253 9.55509 13.8253 10.1915C13.8253 11.0449 13.4841 11.8633 12.8768 12.4668C12.2696 13.0702 11.446 13.4092 10.5872 13.4092Z" fill="white"/>
<path d="M15.7741 6.19761C16.4179 6.19761 16.9398 5.67899 16.9398 5.03924C16.9398 4.39948 16.4179 3.88086 15.7741 3.88086C15.1303 3.88086 14.6084 4.39948 14.6084 5.03924C14.6084 5.67899 15.1303 6.19761 15.7741 6.19761Z" fill="white"/>
</svg>
